<?xml version="1.0" standalone="no"?><!DOCTYPE svg PUBLIC "-//W3C//DTD SVG 1.1//EN" "http://www.w3.org/Graphics/SVG/1.1/DTD/svg11.dtd"><svg t="1583849033225" class="icon" viewBox="0 0 1024 1024" version="1.1" xmlns="http://www.w3.org/2000/svg" p-id="2887" xmlns:xlink="http://www.w3.org/1999/xlink" width="200" height="200"><defs><style type="text/css"></style></defs><path d="M561.6 64.4H185.8c-6.6 0-13 2.6-17.7 7.3-4.7 4.7-7.3 11.1-7.3 17.7v851.8c0 13.6 11.2 25.1 25 25.1h651.6c6.6 0 13-2.6 17.7-7.3 4.7-4.7 7.3-11.1 7.3-17.7v-714 137.8L812.2 315v601.2H210.9V114.5h400.8l-50.1-50.1z m0 0" p-id="2888"></path><path d="M561.6 64.4L862.2 365h-251c-27.3-0.2-49.4-22.3-49.6-49.6v-251z m0 0M311.1 315h150.3v50.1H311.1zM311.1 515.4h400.8v50.1H311.1zM311.1 715.8h400.8v50.1H311.1z" p-id="2889"></path></svg>