<?xml version="1.0" standalone="no"?><!DOCTYPE svg PUBLIC "-//W3C//DTD SVG 1.1//EN" "http://www.w3.org/Graphics/SVG/1.1/DTD/svg11.dtd"><svg t="1590490180010" class="icon" viewBox="0 0 1189 1024" version="1.1" xmlns="http://www.w3.org/2000/svg" p-id="2873" xmlns:xlink="http://www.w3.org/1999/xlink" width="232.2265625" height="200"><defs><style type="text/css"></style></defs><path d="M787.788 323.292h-626.689l211.732-211.732c5.028-5.213 8.123-12.316 8.123-20.143 0-16.035-12.999-29.033-29.033-29.033-7.826 0-14.93 3.097-20.152 8.133l-261.273 261.274c-5.252 5.267-8.498 12.536-8.498 20.563s3.247 15.294 8.499 20.564l261.28 261.28c5.289 5.484 12.702 8.891 20.91 8.891 16.035 0 29.033-12.999 29.033-29.033 0-8.208-3.406-15.621-8.882-20.902l-211.741-211.792h626.689c144.081 0 261.281 117.211 261.281 261.281s-117.211 261.281-261.281 261.281h-232.258c-16.035 0-29.033 12.999-29.033 29.033s12.999 29.033 29.033 29.033h232.258c176.093 0.010 319.359-143.256 319.359-319.349s-143.266-319.349-319.359-319.349z" p-id="2874" fill="#000000"></path></svg>